<svg xmlns="http://www.w3.org/2000/svg" xmlns:xlink="http://www.w3.org/1999/xlink" width="1024" zoomAndPan="magnify" viewBox="0 0 768 767.999994" height="1024" preserveAspectRatio="xMidYMid meet" version="1.0"><defs><clipPath id="id1"><path d="M 264.433594 216.382812 L 527 216.382812 L 527 526 L 264.433594 526 Z M 264.433594 216.382812 " clip-rule="nonzero"/></clipPath></defs><rect x="-76.8" width="921.6" fill="#ffffff" y="-76.799999" height="921.599993" fill-opacity="1"/><rect x="-76.8" width="921.6" fill="#ffa500" y="-76.799999" height="921.599993" fill-opacity="1"/><rect x="-76.8" width="921.6" fill="#ffffff" y="-76.799999" height="921.599993" fill-opacity="1"/><rect x="-76.8" width="921.6" fill="#ffa500" y="-76.799999" height="921.599993" fill-opacity="1"/><g clip-path="url(#id1)"><path fill="#2f3431" d="M 367.367188 321.320312 C 355.414062 323.175781 343.621094 316.390625 339.296875 305.097656 L 338.109375 301.960938 L 341.40625 301.4375 C 353.363281 299.542969 365.152344 306.386719 369.480469 317.679688 L 370.667969 320.820312 Z M 365.980469 273.359375 C 359.578125 273.359375 353.964844 269.554688 351.589844 263.617188 L 349.335938 257.902344 L 353.503906 257.902344 C 359.902344 257.902344 365.515625 261.707031 367.890625 267.644531 L 370.144531 273.359375 Z M 387.652344 267.644531 C 390.027344 261.707031 395.640625 257.902344 402.039062 257.902344 L 406.207031 257.902344 L 403.953125 263.617188 C 401.578125 269.554688 395.964844 273.359375 389.5625 273.359375 L 385.398438 273.359375 Z M 386.0625 317.679688 C 390.390625 306.386719 402.183594 299.542969 414.136719 301.4375 L 417.433594 301.960938 L 416.25 305.097656 C 411.921875 316.390625 400.128906 323.234375 388.175781 321.320312 L 384.875 320.820312 Z M 524.492188 370.03125 L 491.109375 328.226562 C 490.121094 266.554688 439.652344 216.679688 377.773438 216.679688 C 347.484375 216.679688 319.050781 228.476562 297.617188 249.871094 C 276.226562 271.304688 264.433594 299.746094 264.433594 330.039062 L 274.738281 330.039062 C 274.738281 302.523438 285.464844 276.597656 304.925781 257.175781 C 324.34375 237.714844 350.261719 226.984375 377.773438 226.984375 C 434.601562 226.984375 480.804688 273.199219 480.804688 330.039062 C 480.804688 331.226562 481.226562 332.351562 481.933594 333.238281 L 516.445312 376.410156 L 496.261719 376.410156 C 493.421875 376.410156 491.109375 378.726562 491.109375 381.5625 L 491.109375 438.242188 C 491.109375 446.734375 484.144531 453.699219 475.652344 453.699219 L 444.742188 453.699219 C 441.90625 453.699219 439.589844 456.011719 439.589844 458.851562 L 439.589844 515.53125 L 315.953125 515.53125 L 315.953125 422.121094 C 315.953125 420.671875 315.328125 419.222656 314.242188 418.253906 C 295.769531 401.710938 282.886719 379.75 277.574219 355.800781 L 367.46875 355.800781 C 375.960938 355.800781 382.921875 348.835938 382.921875 340.34375 L 382.921875 330.902344 L 386.585938 331.488281 C 388.4375 331.789062 390.289062 331.949219 392.140625 331.949219 C 406.832031 331.949219 420.472656 322.832031 425.886719 308.804688 L 429.347656 299.746094 C 429.914062 298.257812 429.8125 296.644531 429.027344 295.316406 C 428.261719 293.96875 426.875 293.042969 425.363281 292.78125 L 415.746094 291.230469 C 403.269531 289.28125 390.914062 294.128906 382.921875 303.246094 L 382.921875 283.664062 L 389.5625 283.664062 C 400.191406 283.664062 409.546875 277.324219 413.472656 267.480469 L 418.621094 254.660156 C 419.246094 253.050781 419.046875 251.257812 418.121094 249.871094 C 417.132812 248.421875 415.542969 247.597656 413.832031 247.597656 L 402.039062 247.597656 C 391.414062 247.597656 382.058594 253.9375 378.132812 263.777344 L 377.773438 264.644531 L 377.410156 263.777344 C 373.484375 253.9375 364.128906 247.597656 353.503906 247.597656 L 341.710938 247.597656 C 340 247.597656 338.410156 248.421875 337.421875 249.871094 C 336.496094 251.257812 336.296875 253.050781 336.921875 254.660156 L 342.074219 267.480469 C 345.996094 277.324219 355.355469 283.664062 365.980469 283.664062 L 372.621094 283.664062 L 372.621094 303.246094 C 364.632812 294.128906 352.273438 289.28125 339.796875 291.230469 L 330.179688 292.78125 C 328.667969 293.042969 327.28125 293.96875 326.515625 295.316406 C 325.730469 296.644531 325.632812 298.257812 326.195312 299.746094 L 329.65625 308.804688 C 335.070312 322.832031 348.714844 331.949219 363.402344 331.949219 C 365.253906 331.949219 367.105469 331.789062 368.957031 331.488281 L 372.621094 330.902344 L 372.621094 340.34375 C 372.621094 343.179688 370.304688 345.496094 367.46875 345.496094 L 271.335938 345.496094 C 269.847656 345.496094 268.398438 346.160156 267.433594 347.304688 C 266.449219 348.492188 266.023438 349.984375 266.246094 351.472656 C 270.875 379.289062 284.839844 405.050781 305.648438 424.375 L 305.648438 520.683594 C 305.648438 523.519531 307.960938 525.835938 310.800781 525.835938 L 444.742188 525.835938 C 447.582031 525.835938 449.894531 523.519531 449.894531 520.683594 L 449.894531 464.003906 L 475.652344 464.003906 C 489.878906 464.003906 501.410156 452.472656 501.410156 438.242188 L 501.410156 386.714844 L 516.445312 386.714844 C 520.46875 386.714844 524.03125 384.5 525.722656 380.898438 C 527.472656 377.277344 526.96875 373.109375 524.492188 370.03125 " fill-opacity="1" fill-rule="nonzero"/></g></svg>